# xmcd CD database file
#
# Track frame offsets:
#	180
#	21073
#	36556
#	61474
#	78060
#	89441
#	107173
#	121532
#	136990
#	153121
#
# Disc length: 2260 seconds
#
# Revision: 0
# Processed by: cddbd v1.5.1PL0 Copyright (c) Steve Scherf et al.
# Submitted via: CDex 1.60beta1
#
DISCID=7308d20a
DTITLE=Mike Douglas - A Rare Treasure Of Memorable Music
DYEAR=1900
DGENRE=Jazz
TTITLE0=September Song
TTITLE1=When I Fall In Love
TTITLE2=Medley
TTITLE3=Smile
TTITLE4=My Blue Heaven
TTITLE5=The Men In My Little Girl's Life
TTITLE6=Always
TTITLE7=Here's That Rainy Day
TTITLE8=That Old Feeling
TTITLE9=The Very Thought Of You
EXTD=
EXTT0=
EXTT1=
EXTT2=
EXTT3=
EXTT4=
EXTT5=
EXTT6=
EXTT7=
EXTT8=
EXTT9=
PLAYORDER=
